<mxfile host="app.diagrams.net" modified="2021-10-27T08:13:53.687Z" agent="5.0 (Windows NT 10.0; Win64; x64) AppleWebKit/537.36 (KHTML, like Gecko) Chrome/95.0.4638.54 Safari/537.36" etag="E0VXExhB7JJDJtlUo_EW" version="15.5.9" type="github">
  <diagram id="3Zdumfhe-f5hq_ZNzXjN" name="第 1 页">
    <mxGraphModel dx="1422" dy="761" grid="1" gridSize="10" guides="1" tooltips="1" connect="1" arrows="1" fold="1" page="1" pageScale="1" pageWidth="827" pageHeight="1169" math="0" shadow="0">
      <root>
        <mxCell id="0" />
        <mxCell id="1" parent="0" />
        <mxCell id="ZOVWsehxwjOW1M9SSfNJ-1" value="用户" style="swimlane;" vertex="1" parent="1">
          <mxGeometry x="320" y="160" width="250" height="700" as="geometry" />
        </mxCell>
        <mxCell id="ZOVWsehxwjOW1M9SSfNJ-12" value="" style="edgeStyle=orthogonalEdgeStyle;rounded=0;orthogonalLoop=1;jettySize=auto;html=1;" edge="1" parent="ZOVWsehxwjOW1M9SSfNJ-1" source="ZOVWsehxwjOW1M9SSfNJ-5" target="ZOVWsehxwjOW1M9SSfNJ-11">
          <mxGeometry relative="1" as="geometry" />
        </mxCell>
        <mxCell id="ZOVWsehxwjOW1M9SSfNJ-5" value="实名注册用户" style="rounded=0;whiteSpace=wrap;html=1;" vertex="1" parent="ZOVWsehxwjOW1M9SSfNJ-1">
          <mxGeometry x="65" y="60" width="120" height="30" as="geometry" />
        </mxCell>
        <mxCell id="ZOVWsehxwjOW1M9SSfNJ-15" value="" style="edgeStyle=orthogonalEdgeStyle;rounded=0;orthogonalLoop=1;jettySize=auto;html=1;" edge="1" parent="ZOVWsehxwjOW1M9SSfNJ-1" source="ZOVWsehxwjOW1M9SSfNJ-11" target="ZOVWsehxwjOW1M9SSfNJ-14">
          <mxGeometry relative="1" as="geometry" />
        </mxCell>
        <mxCell id="ZOVWsehxwjOW1M9SSfNJ-11" value="创建微心愿" style="rounded=0;whiteSpace=wrap;html=1;" vertex="1" parent="ZOVWsehxwjOW1M9SSfNJ-1">
          <mxGeometry x="65" y="140" width="120" height="30" as="geometry" />
        </mxCell>
        <mxCell id="ZOVWsehxwjOW1M9SSfNJ-14" value="编辑数据：文字，图片，地址" style="rounded=0;whiteSpace=wrap;html=1;" vertex="1" parent="ZOVWsehxwjOW1M9SSfNJ-1">
          <mxGeometry x="65" y="210" width="120" height="30" as="geometry" />
        </mxCell>
        <mxCell id="ZOVWsehxwjOW1M9SSfNJ-32" value="发布微心愿" style="strokeWidth=1;html=1;shape=mxgraph.flowchart.start_1;whiteSpace=wrap;fillColor=#fff2cc;strokeColor=#d6b656;" vertex="1" parent="ZOVWsehxwjOW1M9SSfNJ-1">
          <mxGeometry x="70.5" y="335" width="115" height="50" as="geometry" />
        </mxCell>
        <mxCell id="ZOVWsehxwjOW1M9SSfNJ-3" value="志愿者" style="swimlane;" vertex="1" parent="1">
          <mxGeometry x="570" y="160" width="240" height="700" as="geometry" />
        </mxCell>
        <mxCell id="ZOVWsehxwjOW1M9SSfNJ-4" value="P端" style="swimlane;" vertex="1" parent="1">
          <mxGeometry x="1190" y="160" width="240" height="700" as="geometry" />
        </mxCell>
        <mxCell id="ZOVWsehxwjOW1M9SSfNJ-22" value="审核" style="strokeWidth=1;html=1;shape=mxgraph.flowchart.decision;whiteSpace=wrap;fillColor=#e1d5e7;strokeColor=#9673a6;" vertex="1" parent="ZOVWsehxwjOW1M9SSfNJ-4">
          <mxGeometry x="70" y="260" width="80" height="40" as="geometry" />
        </mxCell>
        <mxCell id="ZOVWsehxwjOW1M9SSfNJ-2" value="B端" style="swimlane;" vertex="1" parent="ZOVWsehxwjOW1M9SSfNJ-4">
          <mxGeometry x="-380" width="380" height="700" as="geometry" />
        </mxCell>
        <mxCell id="ZOVWsehxwjOW1M9SSfNJ-8" value="创建" style="edgeStyle=orthogonalEdgeStyle;rounded=0;orthogonalLoop=1;jettySize=auto;html=1;" edge="1" parent="ZOVWsehxwjOW1M9SSfNJ-2" source="ZOVWsehxwjOW1M9SSfNJ-6" target="ZOVWsehxwjOW1M9SSfNJ-7">
          <mxGeometry relative="1" as="geometry">
            <Array as="points">
              <mxPoint x="120" y="120" />
              <mxPoint x="120" y="120" />
            </Array>
          </mxGeometry>
        </mxCell>
        <mxCell id="ZOVWsehxwjOW1M9SSfNJ-6" value="活动中心" style="rounded=0;whiteSpace=wrap;html=1;" vertex="1" parent="ZOVWsehxwjOW1M9SSfNJ-2">
          <mxGeometry x="60" y="60" width="120" height="30" as="geometry" />
        </mxCell>
        <mxCell id="ZOVWsehxwjOW1M9SSfNJ-7" value="微心愿" style="rounded=0;whiteSpace=wrap;html=1;" vertex="1" parent="ZOVWsehxwjOW1M9SSfNJ-2">
          <mxGeometry x="60" y="140" width="120" height="30" as="geometry" />
        </mxCell>
        <mxCell id="ZOVWsehxwjOW1M9SSfNJ-23" value="内容管理" style="rounded=0;whiteSpace=wrap;html=1;strokeWidth=1;" vertex="1" parent="ZOVWsehxwjOW1M9SSfNJ-2">
          <mxGeometry x="220" y="60" width="110" height="30" as="geometry" />
        </mxCell>
        <mxCell id="ZOVWsehxwjOW1M9SSfNJ-30" style="edgeStyle=orthogonalEdgeStyle;rounded=0;orthogonalLoop=1;jettySize=auto;html=1;exitX=0.5;exitY=1;exitDx=0;exitDy=0;entryX=0.5;entryY=0;entryDx=0;entryDy=0;" edge="1" parent="ZOVWsehxwjOW1M9SSfNJ-2" source="ZOVWsehxwjOW1M9SSfNJ-25" target="ZOVWsehxwjOW1M9SSfNJ-28">
          <mxGeometry relative="1" as="geometry">
            <mxPoint x="275" y="250" as="targetPoint" />
          </mxGeometry>
        </mxCell>
        <mxCell id="ZOVWsehxwjOW1M9SSfNJ-25" value="文明实践中心" style="rounded=0;whiteSpace=wrap;html=1;strokeWidth=1;" vertex="1" parent="ZOVWsehxwjOW1M9SSfNJ-2">
          <mxGeometry x="220" y="140" width="110" height="30" as="geometry" />
        </mxCell>
        <mxCell id="ZOVWsehxwjOW1M9SSfNJ-24" value="" style="endArrow=classic;html=1;rounded=0;exitX=0.5;exitY=1;exitDx=0;exitDy=0;" edge="1" parent="ZOVWsehxwjOW1M9SSfNJ-2" source="ZOVWsehxwjOW1M9SSfNJ-23" target="ZOVWsehxwjOW1M9SSfNJ-25">
          <mxGeometry width="50" height="50" relative="1" as="geometry">
            <mxPoint x="-40" y="250" as="sourcePoint" />
            <mxPoint x="275" y="140" as="targetPoint" />
          </mxGeometry>
        </mxCell>
        <mxCell id="ZOVWsehxwjOW1M9SSfNJ-28" value="微心愿审核" style="rounded=0;whiteSpace=wrap;html=1;strokeWidth=1;fillColor=#fff2cc;strokeColor=#d6b656;" vertex="1" parent="ZOVWsehxwjOW1M9SSfNJ-2">
          <mxGeometry x="220" y="326" width="110" height="30" as="geometry" />
        </mxCell>
        <mxCell id="ZOVWsehxwjOW1M9SSfNJ-38" value="丢弃" style="rounded=0;whiteSpace=wrap;html=1;fillColor=#f8cecc;strokeColor=#b85450;" vertex="1" parent="ZOVWsehxwjOW1M9SSfNJ-2">
          <mxGeometry x="215" y="420" width="120" height="30" as="geometry" />
        </mxCell>
        <mxCell id="ZOVWsehxwjOW1M9SSfNJ-39" value="审核不通过" style="endArrow=classic;html=1;rounded=0;exitX=0.5;exitY=1;exitDx=0;exitDy=0;" edge="1" parent="ZOVWsehxwjOW1M9SSfNJ-2" source="ZOVWsehxwjOW1M9SSfNJ-28">
          <mxGeometry width="50" height="50" relative="1" as="geometry">
            <mxPoint x="-40" y="350" as="sourcePoint" />
            <mxPoint x="275" y="420" as="targetPoint" />
          </mxGeometry>
        </mxCell>
        <mxCell id="ZOVWsehxwjOW1M9SSfNJ-26" value="上级审核和中心审核" style="endArrow=classic;html=1;rounded=0;exitX=0.263;exitY=0.8;exitDx=0;exitDy=0;exitPerimeter=0;entryX=1;entryY=0.5;entryDx=0;entryDy=0;" edge="1" parent="ZOVWsehxwjOW1M9SSfNJ-4" source="ZOVWsehxwjOW1M9SSfNJ-22" target="ZOVWsehxwjOW1M9SSfNJ-28">
          <mxGeometry width="50" height="50" relative="1" as="geometry">
            <mxPoint x="-420" y="350" as="sourcePoint" />
            <mxPoint x="-20" y="325" as="targetPoint" />
            <Array as="points">
              <mxPoint x="91" y="340" />
            </Array>
          </mxGeometry>
        </mxCell>
        <mxCell id="ZOVWsehxwjOW1M9SSfNJ-36" value="审核管理" style="rounded=0;whiteSpace=wrap;html=1;" vertex="1" parent="ZOVWsehxwjOW1M9SSfNJ-4">
          <mxGeometry x="50" y="200" width="120" height="30" as="geometry" />
        </mxCell>
        <mxCell id="ZOVWsehxwjOW1M9SSfNJ-40" value="" style="endArrow=classic;html=1;rounded=0;exitX=0.5;exitY=1;exitDx=0;exitDy=0;entryX=0.5;entryY=0;entryDx=0;entryDy=0;entryPerimeter=0;" edge="1" parent="ZOVWsehxwjOW1M9SSfNJ-4" source="ZOVWsehxwjOW1M9SSfNJ-36" target="ZOVWsehxwjOW1M9SSfNJ-22">
          <mxGeometry width="50" height="50" relative="1" as="geometry">
            <mxPoint x="-420" y="350" as="sourcePoint" />
            <mxPoint x="-370" y="300" as="targetPoint" />
          </mxGeometry>
        </mxCell>
        <mxCell id="ZOVWsehxwjOW1M9SSfNJ-20" value="" style="endArrow=classic;html=1;rounded=0;exitX=0.5;exitY=1;exitDx=0;exitDy=0;entryX=0;entryY=0.5;entryDx=0;entryDy=0;entryPerimeter=0;" edge="1" parent="1" source="ZOVWsehxwjOW1M9SSfNJ-14" target="ZOVWsehxwjOW1M9SSfNJ-22">
          <mxGeometry width="50" height="50" relative="1" as="geometry">
            <mxPoint x="770" y="410" as="sourcePoint" />
            <mxPoint x="1105" y="440" as="targetPoint" />
            <Array as="points">
              <mxPoint x="445" y="440" />
            </Array>
          </mxGeometry>
        </mxCell>
        <mxCell id="ZOVWsehxwjOW1M9SSfNJ-27" value="无需审核" style="endArrow=classic;html=1;rounded=0;exitX=0.75;exitY=0.775;exitDx=0;exitDy=0;exitPerimeter=0;entryX=0.855;entryY=0.855;entryDx=0;entryDy=0;entryPerimeter=0;" edge="1" parent="1" source="ZOVWsehxwjOW1M9SSfNJ-22" target="ZOVWsehxwjOW1M9SSfNJ-32">
          <mxGeometry width="50" height="50" relative="1" as="geometry">
            <mxPoint x="770" y="510" as="sourcePoint" />
            <mxPoint x="505" y="520" as="targetPoint" />
            <Array as="points">
              <mxPoint x="1320" y="538" />
            </Array>
          </mxGeometry>
        </mxCell>
        <mxCell id="ZOVWsehxwjOW1M9SSfNJ-34" value="审核通过" style="endArrow=classic;html=1;rounded=0;exitX=0;exitY=0.5;exitDx=0;exitDy=0;entryX=0.855;entryY=0.145;entryDx=0;entryDy=0;entryPerimeter=0;" edge="1" parent="1" source="ZOVWsehxwjOW1M9SSfNJ-28" target="ZOVWsehxwjOW1M9SSfNJ-32">
          <mxGeometry width="50" height="50" relative="1" as="geometry">
            <mxPoint x="770" y="510" as="sourcePoint" />
            <mxPoint x="820" y="460" as="targetPoint" />
            <Array as="points" />
          </mxGeometry>
        </mxCell>
        <mxCell id="ZOVWsehxwjOW1M9SSfNJ-42" value="" style="endArrow=classic;html=1;rounded=0;exitX=0.5;exitY=1;exitDx=0;exitDy=0;exitPerimeter=0;" edge="1" parent="1" source="ZOVWsehxwjOW1M9SSfNJ-32">
          <mxGeometry width="50" height="50" relative="1" as="geometry">
            <mxPoint x="780" y="610" as="sourcePoint" />
            <mxPoint x="448" y="620" as="targetPoint" />
          </mxGeometry>
        </mxCell>
        <mxCell id="ZOVWsehxwjOW1M9SSfNJ-43" value="" style="endArrow=classic;startArrow=classic;html=1;rounded=0;exitX=1;exitY=0.5;exitDx=0;exitDy=0;exitPerimeter=0;entryX=0;entryY=0.5;entryDx=0;entryDy=0;strokeColor=#FF0000;" edge="1" parent="1" source="ZOVWsehxwjOW1M9SSfNJ-32" target="ZOVWsehxwjOW1M9SSfNJ-7">
          <mxGeometry width="50" height="50" relative="1" as="geometry">
            <mxPoint x="780" y="610" as="sourcePoint" />
            <mxPoint x="830" y="560" as="targetPoint" />
            <Array as="points">
              <mxPoint x="840" y="520" />
              <mxPoint x="840" y="315" />
            </Array>
          </mxGeometry>
        </mxCell>
        <mxCell id="ZOVWsehxwjOW1M9SSfNJ-44" value="关联" style="edgeLabel;html=1;align=center;verticalAlign=middle;resizable=0;points=[];fontColor=#FF0000;" vertex="1" connectable="0" parent="ZOVWsehxwjOW1M9SSfNJ-43">
          <mxGeometry x="0.3503" relative="1" as="geometry">
            <mxPoint as="offset" />
          </mxGeometry>
        </mxCell>
      </root>
    </mxGraphModel>
  </diagram>
</mxfile>
